<?xml version="1.0" encoding="UTF-8" standalone="no"?>
<svg xmlns:xlink="http://www.w3.org/1999/xlink" height="80.25px" width="60.5px" xmlns="http://www.w3.org/2000/svg">
  <g transform="matrix(1.0, 0.0, 0.0, 1.0, -1.2, -1.7)">
    <path d="M58.05 3.0 L58.35 4.45 56.45 5.1 55.75 4.1 Q51.15 5.85 47.2 8.65 52.75 13.9 55.6 20.8 48.2 35.15 41.9 50.25 L42.35 50.9 Q45.15 49.6 48.0 50.2 49.25 47.9 51.9 47.9 L52.95 48.15 Q55.15 49.0 55.3 51.5 55.45 53.8 53.85 55.4 55.35 58.0 55.75 60.95 56.1 63.55 54.3 65.4 L51.95 67.45 51.85 67.65 Q51.45 68.8 52.4 68.75 L52.6 68.6 Q53.5 66.7 55.25 65.7 L54.9 68.05 56.75 67.45 Q55.2 70.1 52.2 71.0 L50.7 70.4 50.5 67.55 47.45 67.05 Q42.75 66.0 40.8 61.35 L40.55 66.95 43.35 65.75 42.9 67.5 43.65 67.8 Q45.1 67.95 44.9 68.55 L41.1 69.3 39.4 69.45 38.9 68.5 39.4 67.5 38.1 57.9 Q35.2 56.95 35.8 53.75 31.95 53.15 29.0 50.4 L36.5 49.65 34.4 43.6 31.75 48.15 26.75 42.45 26.7 42.45 Q24.6 47.45 21.35 51.5 L18.15 43.95 23.45 38.75 Q25.1 37.2 27.3 36.65 L31.4 41.7 32.7 39.85 31.45 37.0 Q26.1 36.95 22.9 32.35 L21.1 29.6 13.3 31.1 11.05 31.3 11.6 29.15 4.55 31.05 Q3.65 30.9 3.15 30.1 0.05 25.1 1.9 19.4 L3.05 16.0 Q4.0 13.2 6.8 12.5 L14.35 16.9 15.85 4.8 Q24.15 0.85 33.25 1.95 39.45 2.9 44.45 6.45 50.0 4.5 55.75 3.9 L55.95 3.45 Q56.65 2.2 58.05 3.0 M57.4 3.3 L57.25 3.25 Q56.85 3.2 56.5 3.55 56.25 3.75 56.3 4.0 L56.55 4.4 57.3 4.45 57.75 3.9 57.6 3.45 57.4 3.3 M46.3 6.55 L45.05 7.0 46.35 7.85 48.45 6.45 51.9 5.05 46.3 6.55 M49.75 14.45 Q46.45 9.95 42.35 7.3 39.6 5.5 36.55 4.65 L35.1 4.25 Q26.75 2.6 18.8 5.9 L17.2 6.65 Q16.2 11.05 15.6 18.05 L16.4 18.65 Q18.75 22.35 16.85 26.35 16.35 27.4 15.5 27.8 14.4 28.4 13.45 28.4 L13.0 29.6 Q17.35 29.35 21.25 28.15 20.35 21.15 24.8 16.0 26.4 14.1 28.85 13.3 33.4 11.6 37.65 13.75 41.15 15.5 42.6 19.0 44.45 23.6 42.95 28.4 L45.15 29.65 Q42.75 39.65 39.95 49.45 39.75 50.15 39.05 50.25 L31.1 51.0 Q34.5 53.0 38.5 52.8 L39.0 52.6 40.1 51.55 41.4 49.15 42.95 45.05 Q44.95 39.15 49.5 29.45 L53.6 20.9 Q51.85 17.3 49.75 14.45 M42.9 21.95 Q42.05 16.8 37.4 14.35 34.95 13.05 32.2 13.2 26.5 13.55 23.8 18.4 22.9 20.05 22.35 21.85 21.2 25.55 22.35 29.25 23.35 32.45 26.1 34.2 30.25 36.95 34.85 35.4 37.85 34.5 39.9 32.1 43.85 27.8 42.9 21.95 M6.5 13.65 Q3.0 16.45 2.65 21.0 L2.45 24.8 Q2.35 27.75 4.5 29.5 5.65 29.65 6.2 28.7 9.95 21.75 7.15 14.35 L6.5 13.65 M8.8 18.85 L7.8 26.2 6.8 29.25 8.7 28.7 Q9.8 27.85 10.45 25.75 L10.55 25.45 10.6 25.2 11.15 19.75 10.1 15.35 8.0 14.15 8.8 18.85 M14.15 20.75 L13.55 17.6 10.95 15.95 11.6 21.15 10.85 25.85 9.5 28.6 12.25 27.8 13.4 25.65 13.9 24.2 Q14.3 22.5 14.15 20.75 M16.95 22.2 Q16.8 20.85 16.1 19.5 L15.6 18.85 14.1 18.0 14.65 21.0 13.9 25.55 12.8 27.75 15.65 27.0 Q17.25 24.65 16.95 22.2 M31.5 43.15 L27.0 37.4 Q22.8 40.05 19.6 44.05 L21.45 49.25 26.6 40.45 31.65 46.7 34.65 41.5 39.35 48.45 Q37.65 43.85 35.6 39.6 35.15 38.65 34.75 39.05 L31.5 43.15 M36.7 53.7 Q36.3 55.65 37.25 56.5 37.75 57.0 39.05 57.2 38.6 56.65 38.6 56.0 L39.15 53.9 36.7 53.7 M53.2 54.5 Q54.95 52.6 54.05 50.35 53.75 49.5 53.05 49.15 50.55 47.85 48.85 50.2 47.8 52.3 49.1 54.2 49.75 55.1 50.95 55.0 52.3 55.25 53.2 54.5 M50.8 57.5 L50.8 59.75 51.75 59.75 51.75 57.5 50.8 57.5 M50.9 55.75 L50.85 56.8 Q51.15 57.25 51.55 57.2 L51.85 57.0 51.95 55.8 51.2 55.8 50.9 55.75 M44.75 51.05 L43.2 51.55 44.65 53.25 45.55 53.15 Q44.7 54.55 43.1 55.25 L42.25 55.5 42.1 55.5 42.4 54.95 42.5 54.95 40.85 53.05 Q39.8 54.0 39.5 55.2 L39.35 56.3 Q40.05 57.3 41.15 57.3 45.25 57.45 48.8 55.1 47.75 54.1 47.65 52.55 47.6 51.75 47.7 50.9 L44.75 51.05 M45.95 56.9 Q43.4 57.9 40.6 57.7 L40.15 57.6 Q41.5 61.8 44.75 64.95 46.1 66.3 48.0 66.6 L50.45 66.35 50.25 64.45 46.5 65.15 Q45.85 65.15 45.45 64.7 43.25 62.55 41.85 59.65 L43.55 59.65 43.85 59.3 45.1 59.0 45.35 59.4 46.5 59.2 49.2 58.4 50.0 59.75 49.8 55.45 45.95 56.9 M43.0 54.55 L44.2 53.85 41.6 51.0 41.1 52.3 43.0 54.55 M50.05 64.1 L50.1 64.1 50.25 64.05 Q50.55 61.25 49.2 59.0 L49.1 58.85 46.6 59.55 45.8 60.15 45.85 60.4 44.5 60.95 43.9 60.05 42.25 59.9 Q43.75 62.7 46.3 64.55 L47.3 64.75 50.05 64.1 M44.85 59.25 L44.15 59.4 Q43.9 60.4 45.05 60.5 45.6 60.1 44.95 59.35 L44.85 59.25 M39.55 59.15 L39.0 58.0 39.3 59.3 39.55 59.15 M39.9 61.3 L39.95 61.25 39.95 59.45 39.25 59.5 39.35 60.95 Q39.45 61.5 39.9 61.3 M39.7 64.45 L39.8 64.75 39.95 63.75 Q39.4 63.6 39.7 64.45 M39.95 61.75 L39.45 61.6 39.55 62.95 39.95 63.25 39.95 61.75 M39.85 67.75 L39.6 68.0 Q39.35 68.45 39.65 68.8 L40.0 68.95 40.4 68.85 40.5 68.7 40.45 68.0 Q40.2 67.5 39.85 67.75 M41.9 67.6 L42.45 66.45 40.9 67.45 Q41.35 67.9 41.2 68.55 L43.65 68.15 41.9 67.6 M50.8 60.0 L50.8 61.65 51.7 61.65 51.7 60.0 50.8 60.0 M50.95 64.15 L51.2 65.85 51.4 64.2 50.95 64.15 M50.85 62.05 L50.95 63.55 51.4 63.75 51.55 62.1 50.85 62.05 M52.1 66.05 Q53.45 65.6 54.2 64.6 54.95 63.65 54.9 62.3 54.85 58.85 52.95 56.05 L52.1 66.05 M51.55 70.2 L52.05 70.1 52.25 69.65 52.0 69.2 51.8 69.05 Q51.5 68.9 51.25 69.2 51.05 69.45 51.15 69.8 51.2 70.1 51.55 70.2 M54.25 68.55 L54.05 67.9 54.05 67.55 52.85 69.15 52.95 69.9 55.6 68.35 54.25 68.55 M54.0 78.45 L54.75 74.25 Q56.0 68.65 57.2 67.75 57.7 70.35 59.4 75.7 61.2 81.25 61.7 81.7 57.5 82.35 53.75 81.2 53.7 80.4 54.0 78.45 M56.8 70.4 L55.15 80.5 58.8 81.05 60.05 81.05 56.8 70.4 M47.45 80.7 L47.45 80.8 49.25 80.8 49.65 80.75 Q48.75 78.95 47.85 74.15 L47.15 69.7 Q45.65 74.15 45.0 78.85 L44.85 80.5 47.45 80.7 M43.75 81.2 Q43.7 80.45 43.95 78.5 L44.75 74.35 Q46.0 68.85 47.3 67.85 L49.2 75.35 Q50.8 81.2 51.5 81.5 L43.75 81.2" fill="#000000" fill-rule="evenodd" stroke="none"/>
    <path d="M57.4 3.3 L57.6 3.45 57.75 3.9 57.3 4.45 56.55 4.4 56.3 4.0 Q56.25 3.75 56.5 3.55 56.85 3.2 57.25 3.25 L57.4 3.3 M42.9 21.95 Q43.85 27.8 39.9 32.1 37.85 34.5 34.85 35.4 30.25 36.95 26.1 34.2 23.35 32.45 22.35 29.25 21.2 25.55 22.35 21.85 22.9 20.05 23.8 18.4 26.5 13.55 32.2 13.2 34.95 13.05 37.4 14.35 42.05 16.8 42.9 21.95 M6.5 13.65 L7.15 14.35 Q9.95 21.75 6.2 28.7 5.65 29.65 4.5 29.5 2.35 27.75 2.45 24.8 L2.65 21.0 Q3.0 16.45 6.5 13.65 M36.7 53.7 L36.6 54.45 Q38.0 54.5 38.6 56.0 38.6 56.65 39.05 57.2 37.75 57.0 37.25 56.5 36.3 55.65 36.7 53.7 M53.2 54.5 Q52.3 55.25 50.95 55.0 49.75 55.1 49.1 54.2 47.8 52.3 48.85 50.2 50.95 49.45 52.4 51.25 L52.9 52.3 53.2 54.5 M46.6 59.55 Q47.7 62.4 50.05 64.1 L47.3 64.75 46.3 64.55 Q43.75 62.7 42.25 59.9 L43.9 60.05 44.5 60.95 45.85 60.4 45.8 60.15 46.6 59.55 M39.85 67.75 Q40.2 67.5 40.45 68.0 L40.5 68.7 40.4 68.85 40.0 68.95 39.65 68.8 Q39.35 68.45 39.6 68.0 L39.85 67.75 M51.55 70.2 Q51.2 70.1 51.15 69.8 51.05 69.45 51.25 69.2 51.5 68.9 51.8 69.05 L52.0 69.2 52.25 69.65 52.05 70.1 51.55 70.2" fill="#4eb799" fill-rule="evenodd" stroke="none"/>
    <path d="M48.45 6.45 L46.35 7.85 45.05 7.0 46.3 6.55 46.65 7.1 48.45 6.45 M37.65 13.75 L38.5 13.95 40.65 14.7 Q43.95 16.35 45.65 19.7 46.75 17.4 48.25 15.8 L49.75 14.45 Q51.85 17.3 53.6 20.9 L49.5 29.45 Q44.95 39.15 42.95 45.05 L41.4 49.15 40.1 51.55 39.0 52.6 39.05 50.25 Q39.75 50.15 39.95 49.45 42.75 39.65 45.15 29.65 L42.95 28.4 Q44.45 23.6 42.6 19.0 41.15 15.5 37.65 13.75 M8.8 18.85 L11.15 19.75 10.6 25.2 10.55 25.45 10.45 25.75 10.35 25.95 7.8 26.2 8.8 18.85 M11.6 21.15 L11.6 19.9 14.15 20.75 Q14.3 22.5 13.9 24.2 L13.4 25.65 10.85 25.85 11.6 21.15 M14.65 21.0 L16.95 22.2 Q17.05 23.95 16.45 25.45 L13.9 25.55 14.65 21.0 M46.5 59.2 L45.35 59.4 45.1 59.0 43.85 59.3 43.55 59.65 41.85 59.65 Q43.25 62.55 45.45 64.7 45.85 65.15 46.5 65.15 L50.25 64.45 50.45 66.35 48.0 66.6 Q46.1 66.3 44.75 64.95 41.5 61.8 40.15 57.6 L40.6 57.7 Q43.4 57.9 45.95 56.9 L46.5 59.2 M44.75 51.05 L47.7 50.9 Q47.6 51.75 47.65 52.55 47.75 54.1 48.8 55.1 45.25 57.45 41.15 57.3 40.05 57.3 39.35 56.3 L39.5 55.2 Q39.8 54.0 40.85 53.05 L42.5 54.95 42.4 54.95 42.1 55.5 42.25 55.5 43.1 55.25 Q44.7 54.55 45.55 53.15 L44.65 53.25 43.2 51.55 44.75 51.05 M50.9 55.75 L51.2 55.8 51.95 55.8 51.85 57.0 51.55 57.2 Q51.15 57.25 50.85 56.8 L50.9 55.75 M50.8 57.5 L51.75 57.5 51.75 59.75 50.8 59.75 50.8 57.5 M39.95 61.75 L39.95 63.25 39.55 62.95 39.45 61.6 39.95 61.75 M39.7 64.45 Q39.4 63.6 39.95 63.75 L39.8 64.75 39.7 64.45 M39.9 61.3 Q39.45 61.5 39.35 60.95 L39.25 59.5 39.95 59.45 39.95 61.25 39.9 61.3 M39.55 59.15 L39.3 59.3 39.0 58.0 39.55 59.15 M50.85 62.05 L51.55 62.1 51.4 63.75 50.95 63.55 50.85 62.05 M50.95 64.15 L51.4 64.2 51.2 65.85 50.95 64.15 M50.8 60.0 L51.7 60.0 51.7 61.65 50.8 61.65 50.8 60.0 M41.9 67.6 L43.65 68.15 41.2 68.55 Q41.35 67.9 40.9 67.45 L42.45 66.45 41.9 67.6 M54.25 68.55 L55.6 68.35 52.95 69.9 52.85 69.15 54.05 67.55 54.05 67.9 54.25 68.55 M58.8 81.05 L57.8 80.85 56.8 70.4 60.05 81.05 58.8 81.05 M47.15 69.7 L47.85 74.15 Q48.75 78.95 49.65 80.75 L49.25 80.8 47.45 80.8 47.45 80.7 47.05 77.45 Q46.7 73.35 47.15 69.7" fill="#999999" fill-rule="evenodd" stroke="none"/>
    <path d="M48.45 6.45 L46.65 7.1 46.3 6.55 51.9 5.05 48.45 6.45 M49.75 14.45 L48.25 15.8 Q46.75 17.4 45.65 19.7 43.95 16.35 40.65 14.7 L38.5 13.95 37.65 13.75 Q33.4 11.6 28.85 13.3 26.4 14.1 24.8 16.0 20.35 21.15 21.25 28.15 17.35 29.35 13.0 29.6 L13.45 28.4 Q14.4 28.4 15.5 27.8 16.35 27.4 16.85 26.35 18.75 22.35 16.4 18.65 L18.55 7.5 Q19.65 6.5 21.35 6.1 L24.65 5.35 Q30.5 4.05 36.55 4.65 39.6 5.5 42.35 7.3 46.45 9.95 49.75 14.45 M39.05 50.25 L39.0 52.6 38.5 52.8 Q34.5 53.0 31.1 51.0 L39.05 50.25 M43.0 54.55 L41.1 52.3 41.6 51.0 44.2 53.85 43.0 54.55 M44.85 59.25 L44.95 59.35 Q45.6 60.1 45.05 60.5 43.9 60.4 44.15 59.4 L44.85 59.25 M58.8 81.05 L55.15 80.5 56.8 70.4 57.8 80.85 58.8 81.05 M47.15 69.7 Q46.7 73.35 47.05 77.45 L47.45 80.7 44.85 80.5 45.0 78.85 Q45.65 74.15 47.15 69.7" fill="#bfbfbf" fill-rule="evenodd" stroke="none"/>
    <path d="M36.55 4.65 Q30.5 4.05 24.65 5.35 L21.35 6.1 Q19.65 6.5 18.55 7.5 L16.4 18.65 15.6 18.05 Q16.2 11.05 17.2 6.65 L18.8 5.9 Q26.75 2.6 35.1 4.25 L36.55 4.65" fill="#ffffff" fill-rule="evenodd" stroke="none"/>
    <path d="M11.15 19.75 L8.8 18.85 8.0 14.15 10.1 15.35 11.15 19.75 M7.8 26.2 L10.35 25.95 10.45 25.75 Q9.8 27.85 8.7 28.7 L6.8 29.25 7.8 26.2 M11.6 21.15 L10.95 15.95 13.55 17.6 14.15 20.75 11.6 19.9 11.6 21.15 M13.4 25.65 L12.25 27.8 9.5 28.6 10.85 25.85 13.4 25.65 M14.65 21.0 L14.1 18.0 15.6 18.85 16.1 19.5 Q16.8 20.85 16.95 22.2 L14.65 21.0 M16.95 22.2 Q17.25 24.65 15.65 27.0 L12.8 27.75 13.9 25.55 16.45 25.45 Q17.05 23.95 16.95 22.2 M46.5 59.2 L45.95 56.9 49.8 55.45 50.0 59.75 49.2 58.4 46.5 59.2 M52.1 66.05 L52.95 56.05 Q54.85 58.85 54.9 62.3 54.95 63.65 54.2 64.6 53.45 65.6 52.1 66.05" fill="#666666" fill-rule="evenodd" stroke="none"/>
    <path d="M26.6 40.45 L21.45 49.25 19.6 44.05 Q22.8 40.05 27.0 37.4 L31.5 43.15 32.2 44.05 30.55 43.95 Q28.5 42.35 27.05 40.05 L26.6 40.45" fill="#f86885" fill-rule="evenodd" stroke="none"/>
    <path d="M26.6 40.45 L27.05 40.05 Q28.5 42.35 30.55 43.95 L32.2 44.05 31.5 43.15 34.75 39.05 Q35.15 38.65 35.6 39.6 37.65 43.85 39.35 48.45 L34.65 41.5 31.65 46.7 26.6 40.45" fill="#f7295f" fill-rule="evenodd" stroke="none"/>
    <path d="M38.6 56.0 Q38.0 54.5 36.6 54.45 L36.7 53.7 39.15 53.9 38.6 56.0 M48.85 50.2 Q50.55 47.85 53.05 49.15 53.75 49.5 54.05 50.35 54.95 52.6 53.2 54.5 L52.9 52.3 52.4 51.25 Q50.95 49.45 48.85 50.2 M46.6 59.55 L49.1 58.85 49.2 59.0 Q50.55 61.25 50.25 64.05 L50.1 64.1 50.05 64.1 Q47.7 62.4 46.6 59.55" fill="#005b59" fill-rule="evenodd" stroke="none"/>
  </g>
</svg>
